# xmcd
#
# Track frame offsets: 
#        150
#        10453
#        21183
#        32440
#        42357
#        52958
#        64078
#        78123
#        87147
#        99747
#        109382
#        120445
#
# Disc length: 1761 seconds
#
# Revision: 0
# Processed by: cddbd v1.5.2PL0 Copyright (c) Steve Scherf et al.
# Submitted via: ExactAudioCopy v0.99pb5
#
DISCID=8d06df0c
DTITLE=Waylon Jennings - Hangin' On
DYEAR=1968
DGENRE=Country
TTITLE0=Hangin' On
TTITLE1=Julie
TTITLE2=The Crowd
TTITLE3=Let Me Talk to You
TTITLE4=Woman, Don't You Ever Laugh at Me
TTITLE5=The Chokin' Kind
TTITLE6=Gentle on My Mind
TTITLE7=Right Before My Eyes
TTITLE8=Lock, Stock and Teardrops
TTITLE9=I Fall in Love So Easily
TTITLE10=Looking at a Heart That Needs a Home
TTITLE11=How Long Have You Been There
EXTD=
EXTT0=
EXTT1=
EXTT2=
EXTT3=
EXTT4=
EXTT5=
EXTT6=
EXTT7=
EXTT8=
EXTT9=
EXTT10=
EXTT11=
PLAYORDER=
